<svg width="20" height="26" viewBox="0 0 20 26" fill="none" xmlns="http://www.w3.org/2000/svg">
<path d="M20 8V13C20 13.69 19.72 14.316 19.268 14.768C18.815 15.22 18.191 15.5 17.5 15.5C16.809 15.5 16.185 15.78 15.733 16.232C15.28 16.684 15 17.31 15 18C15 18.69 14.72 19.316 14.268 19.768C13.815 20.22 13.191 20.5 12.5 20.5C11.12 20.5 10 19.381 10 18C10 17.31 10.28 16.684 10.733 16.232C11.185 15.78 11.81 15.5 12.5 15.5C13.19 15.5 13.815 15.22 14.268 14.768C14.72 14.316 15 13.69 15 13V8C15 7.31 14.72 6.684 14.268 6.232C13.815 5.78 13.191 5.5 12.5 5.5H7.5C6.81 5.5 6.185 5.78 5.733 6.232C5.28 6.684 5 7.31 5 8V23C5 23.69 4.72 24.316 4.268 24.768C3.815 25.22 3.191 25.5 2.5 25.5C1.12 25.5 0 24.381 0 23V8C0 7.31 0.28 6.684 0.733 6.232C1.185 5.78 1.81 5.5 2.5 5.5C3.19 5.5 3.815 5.22 4.268 4.768C4.72 4.316 5 3.69 5 3C5 2.31 5.28 1.684 5.733 1.232C6.185 0.78 6.81 0.5 7.5 0.5H12.5C13.191 0.5 13.815 0.78 14.268 1.232C14.72 1.684 15 2.31 15 3C15 4.381 16.12 5.5 17.5 5.5C18.191 5.5 18.815 5.78 19.268 6.232C19.72 6.684 20 7.31 20 8Z" fill="#ea6a51"/>
</svg>
